<svg xmlns="http://www.w3.org/2000/svg" width="260" height="86.969" viewBox="0 0 260 86.969">
  <defs>
    <style>
      .cls-1 {
        fill: #fff;
        fill-rule: evenodd;
      }
    </style>
  </defs>
  <path id="logo.svg" class="cls-1" d="M297.02,409.207h-3.034c0.607,1.848,1.042,3.439,1.338,4.624a3.724,3.724,0,0,0,2.774,2.438c0.781,0,.654-1.739.586-1.989A24.488,24.488,0,0,0,297.02,409.207Zm60.911,0h-4.087v12.727a1.973,1.973,0,0,1-2.188,1.744H319.368a2.267,2.267,0,0,1-2.309-2.292V409.207h-4.087v21.028a0.408,0.408,0,0,0,.409.4l3.27-1.015a0.407,0.407,0,0,0,.408-0.4V426.1h36.785v3.117a0.408,0.408,0,0,0,.408.4l3.27,1.015a0.408,0.408,0,0,0,.409-0.4V409.207Zm41.218,0h-4.087V431.14a0.407,0.407,0,0,0,.408.4l3.27-1.015a0.625,0.625,0,0,0,.409-0.574V409.207Zm-13.937,0h-3.275c-2.537,7.087-5.9,15.252-9.233,20.136-0.076.1,0.037,0.218,0.13,0.129A74.011,74.011,0,0,0,385.212,409.207Zm29.967,0h-3.034c0.607,1.848,1.042,3.439,1.338,4.624a3.724,3.724,0,0,0,2.774,2.438c0.781,0,.654-1.739.586-1.989A24.488,24.488,0,0,0,415.179,409.207Zm50.462,0h-1.6a41.089,41.089,0,0,0,11.045,19.373,0.773,0.773,0,0,0,.637.226l3.426-.092a0.317,0.317,0,0,0,.123-0.576A52.065,52.065,0,0,1,465.641,409.207ZM444.023,416.7c-0.114.061-.062,0.213,0.062,0.172,4.99-1.29,8.915-4.814,11.428-7.665h-3.731A30.592,30.592,0,0,1,444.023,416.7Zm16.889-7.493h-3.77a29.679,29.679,0,0,1-7.113,19.75c-0.069-.08-0.14-0.157-0.21-0.225a61.383,61.383,0,0,0-9.987-7.809c-0.114-.063-0.194.076-0.094,0.158a70.283,70.283,0,0,1,8.871,9.66,5.961,5.961,0,0,0,.614.927,0.73,0.73,0,0,0,.647.306,2.277,2.277,0,0,0,1.4-.681C455.661,427.469,460.842,419.1,460.912,409.207Zm-175.589,0h-4.087V431.14a0.408,0.408,0,0,0,.409.4l3.27-1.015a0.624,0.624,0,0,0,.408-0.574V409.207Zm103.723-15.629a28.242,28.242,0,0,0,9.309-1.656,49.688,49.688,0,0,0,9.443-4.505c0.178-.108.356-0.218,0.533-0.328h-2.575q-1.48.818-2.947,1.52a24.8,24.8,0,0,1-10.38,2.848,7.622,7.622,0,0,1-3.718-.8,5.9,5.9,0,0,1-2.01-2.053,9.471,9.471,0,0,1-1.07-2.784,14.335,14.335,0,0,1-.336-3.113,24.233,24.233,0,0,1,.937-6.625,27.749,27.749,0,0,1,2.412-5.964l0.669-1.457a43.048,43.048,0,0,1,3.952-6.626,54.481,54.481,0,0,1,5.827-6.956,42.008,42.008,0,0,1,6.5-5.433,11.184,11.184,0,0,1,6.1-2.185,3.524,3.524,0,0,1,2.478.927,3.6,3.6,0,0,1,1,2.782,9.035,9.035,0,0,1-2.947,6.427,30.541,30.541,0,0,1-7.032,5.234,61.4,61.4,0,0,1-7.615,3.487,40.937,40.937,0,0,0,12.036-3.421,40.022,40.022,0,0,0,8.5-5.433q3.481-2.981,3.482-6.161a4.724,4.724,0,0,0-1.875-4.042,8.62,8.62,0,0,0-5.223-1.391,26.327,26.327,0,0,0-12.591,3.578,53.469,53.469,0,0,0-12.056,9.011,52.033,52.033,0,0,0-9.041,11.858,25.407,25.407,0,0,0-3.549,12.257q0,5.3,3.08,8.149T389.046,393.578ZM465,349.53a25.485,25.485,0,0,1,8.082-1.007,5.3,5.3,0,0,1,2.771.929,2.775,2.775,0,0,1,.954,2.434q-0.162,3.309-3.588,7.522t-7.538,8.791q-4.116,4.579-7.555,9.123t-3.637,8.515a7.174,7.174,0,0,0,2.257,5.946,9.7,9.7,0,0,0,6.318,2.425,15.4,15.4,0,0,0,6.016-.972,31.78,31.78,0,0,0,6.255-3.148c1.355-.866,2.825-1.935,4.19-3l-1.505.006a39.316,39.316,0,0,1-4.874,3.122,18.041,18.041,0,0,1-9.238,2.41c-2.5-.121-4.317-1.415-4.2-3.886a8.974,8.974,0,0,1,1.748-4.227q1.665-2.508,4.092-5.509t5.272-6.313q2.844-3.313,5.282-6.513a63.347,63.347,0,0,0,4.118-6.038,11.2,11.2,0,0,0,1.785-4.954,7.571,7.571,0,0,0-1.931-5.731,8.47,8.47,0,0,0-6.114-2.483,18.3,18.3,0,0,0-9.3,2.274C464.437,349.38,464.608,349.659,465,349.53Zm-209.93,44.048c4.041-.154,7.948-2.431,11.28-4.836a22.2,22.2,0,0,0,2.11-1.653h-1.666a36.632,36.632,0,0,1-4.421,2.778,12.049,12.049,0,0,1-5.559,1.59c-3.07,0-5.046-1.588-5.046-4.108,0-4.588,6.628-12.8,8.449-15.371,1.48-2.091,6.514-8.843,11.1-14.976h0l0.012-.017c0.018-.023.055-0.073,0.1-0.139l0.035-.047c2.734-3.658,6.855-5.414,7.982-6.684,1.042-1.174-.61-3.178-0.612-3.18h0a1.548,1.548,0,0,0-.789-0.428c-0.679-.187-3.74-1.015-5.523-1.448-1.832-.481-3.087,1.876-3.087,1.876-0.569.952-1.76,4.6-3.589,7.12h0c-4.848,6.458-11.364,15.175-12.678,17.123a73.435,73.435,0,0,0-5.382,8.685c-1.861,3.956-1.817,6.557-1.117,8.869C247.528,391.575,250.691,393.692,255.068,393.578Zm55.178-13.715c-1.861,3.956-1.817,6.557-1.117,8.869,0.86,2.843,4.023,4.96,8.4,4.846,4.041-.154,7.948-2.431,11.28-4.836a22.2,22.2,0,0,0,2.11-1.653h-1.666a36.7,36.7,0,0,1-4.42,2.778,12.053,12.053,0,0,1-5.56,1.59c-3.069,0-5.046-1.588-5.046-4.108,0-4.588,6.628-12.8,8.449-15.371,1.48-2.091,6.514-8.843,11.1-14.976h0l0.012-.017c0.018-.023.055-0.073,0.1-0.139l0.035-.047c2.734-3.658,6.855-5.414,7.982-6.684,1.042-1.174-.61-3.178-0.612-3.18h0a1.548,1.548,0,0,0-.789-0.428c-0.679-.187-3.739-1.015-5.523-1.448-1.831-.481-3.086,1.876-3.086,1.876-0.569.952-1.76,4.6-3.59,7.12h0c-4.849,6.458-11.365,15.175-12.678,17.123A73.323,73.323,0,0,0,310.246,379.863Zm30.449,0c-1.86,3.956-1.816,6.557-1.117,8.869,0.861,2.843,4.024,4.96,8.4,4.846,4.041-.154,7.947-2.431,11.28-4.836a22.2,22.2,0,0,0,2.11-1.653H359.7a36.545,36.545,0,0,1-4.42,2.778,12.049,12.049,0,0,1-5.559,1.59c-3.07,0-5.047-1.588-5.047-4.108,0-4.588,6.628-12.8,8.45-15.371,1.48-2.091,6.513-8.843,11.1-14.976h0l0.012-.017,0.105-.139c0.012-.016.023-0.032,0.035-0.047,2.734-3.658,6.854-5.414,7.982-6.684,1.042-1.174-.611-3.178-0.611-3.178v0a1.548,1.548,0,0,0-.79-0.428c-0.678-.187-3.739-1.015-5.522-1.448-1.832-.481-3.087,1.876-3.087,1.876-0.569.952-1.76,4.6-3.589,7.12l0,0c-4.849,6.459-11.367,15.178-12.681,17.127A73.456,73.456,0,0,0,340.7,379.863Zm83.88,11.517c1.393,0.543,5.511-4.874,7.1-7.031h0s12.667-17.141,20.987-28.389c2.694-3.093,6.26-4.676,7.3-5.844s-0.612-3.18-.612-3.18l-0.51.681,0.507-.681h0a1.548,1.548,0,0,0-.79-0.428c-0.678-.187-3.739-1.015-5.522-1.448-1.832-.481-3.087,1.876-3.087,1.876-0.569.952-1.681,4.6-3.51,7.12h0l-17.464,23.536-0.009-.021-1.319,1.774c-0.468.61-1.046,0.428-1.272-.579-0.239-1.065-.762-4.038-1.017-5.245a0.349,0.349,0,0,0-.694.026C424.331,375.477,422.5,390.54,424.575,391.38ZM266.557,406.009c3.79-4.682,12.162-15.406,12.162-15.406,3.61-4.956,17.348-23.61,25.644-34.872,2.667-2.942,6.083-4.476,7.094-5.615,1.042-1.174-.612-3.18-0.612-3.18h0a1.548,1.548,0,0,0-.79-0.428c-0.678-.187-3.739-1.015-5.522-1.448-1.832-.481-3.087,1.876-3.087,1.876-0.459.767-1.322,3.283-2.6,5.551-8.924,12.278-29.743,40.914-32.173,44.184q-4.654,6.262-9.829,12.109A93.028,93.028,0,0,1,246.076,419.2a52.4,52.4,0,0,1-11.594,7.272A53.856,53.856,0,0,1,222,430.527a52.614,52.614,0,0,0,17.612-3.341,59.843,59.843,0,0,0,14.7-8.834A85.43,85.43,0,0,0,266.557,406.009Z" transform="translate(-222 -345)"/>
</svg>
